<?xml version="1.0" standalone="no"?>
<!DOCTYPE svg PUBLIC "-//W3C//DTD SVG 20010904//EN"
 "http://www.w3.org/TR/2001/REC-SVG-20010904/DTD/svg10.dtd">
<svg version="1.0" xmlns="http://www.w3.org/2000/svg"
 width="172.000000pt" height="160.000000pt" viewBox="0 0 172.000000 160.000000"
 preserveAspectRatio="xMidYMid meet">

<g transform="translate(0.000000,160.000000) scale(0.100000,-0.100000)"
fill="#000000" stroke="none">
<path d="M664 1591 c-133 -34 -233 -141 -250 -269 -9 -69 1 -106 26 -99 25 6
34 -7 21 -32 -15 -28 -49 -33 -72 -10 -22 22 -23 29 -7 64 6 14 8 28 5 31 -3
4 -74 -10 -157 -31 -169 -42 -203 -61 -220 -125 -9 -32 -6 -56 13 -132 20 -79
27 -93 43 -91 10 1 132 23 269 48 138 26 266 49 285 52 l35 5 -40 -24 c-22
-13 -66 -37 -97 -53 -32 -17 -52 -33 -46 -36 14 -9 40 0 32 12 -3 5 3 6 12 2
10 -4 15 -2 11 3 -3 5 3 10 13 10 10 0 16 -4 14 -8 -3 -4 3 -8 13 -8 14 0 15
-2 4 -9 -14 -9 -7 -31 10 -31 6 0 7 5 3 12 -5 8 -2 9 10 5 11 -4 15 -3 10 4
-4 7 1 9 15 4 16 -5 20 -3 15 9 -3 9 -2 16 4 16 6 0 12 -5 14 -11 2 -7 12 -7
32 0 15 6 32 8 38 5 7 -5 8 -2 4 5 -5 8 -20 10 -39 6 l-32 -6 25 15 c14 8 28
12 32 10 5 -3 8 1 8 8 0 9 3 9 10 -2 8 -13 11 -13 19 -1 5 7 14 10 21 6 6 -4
28 -4 47 0 28 5 33 9 22 17 -10 7 -6 8 17 4 17 -3 35 -1 40 4 5 5 23 10 39 12
17 2 40 9 52 16 12 7 36 10 53 7 18 -3 30 -1 30 5 0 6 5 8 10 5 6 -4 34 1 63
11 54 17 349 133 356 139 4 5 -47 222 -61 258 -15 39 -73 87 -106 87 -30 0
-290 -65 -299 -74 -4 -3 2 -24 12 -46 17 -39 17 -41 0 -60 -22 -24 -48 -26
-69 -4 -26 25 -20 41 14 36 37 -5 39 11 10 68 -57 112 -220 190 -336 161z
m143 -56 c35 -10 67 -30 98 -61 26 -25 45 -48 41 -51 -12 -12 -471 -120 -475
-111 -7 21 11 78 40 122 37 56 78 86 138 102 62 17 98 17 158 -1z m-157 -605
c0 -5 -8 -10 -17 -10 -15 0 -16 2 -3 10 19 12 20 12 20 0z m-30 -25 c0 -12
-29 -3 -34 10 -4 13 -2 14 14 5 11 -6 20 -13 20 -15z"/>
<path d="M1000 989 c0 -5 5 -7 10 -4 6 3 10 8 10 11 0 2 -4 4 -10 4 -5 0 -10
-5 -10 -11z"/>
<path d="M518 889 c-26 -15 -22 -26 11 -31 25 -4 28 -2 21 13 -5 9 -6 19 -3
23 10 10 -10 7 -29 -5z"/>
<path d="M455 870 c-3 -5 -20 -10 -36 -10 -17 0 -28 -4 -25 -8 6 -10 82 -9 93
1 4 5 0 5 -10 1 -13 -5 -16 -2 -11 10 7 18 -1 22 -11 6z"/>
<path d="M321 826 c-34 -18 -40 -24 -27 -29 11 -5 15 -3 10 5 -5 8 -2 9 10 5
10 -4 15 -3 11 3 -8 13 1 13 26 0 14 -8 19 -7 19 1 0 7 9 9 21 6 13 -3 19 -1
16 6 -5 13 -9 13 -42 2 -20 -7 -20 -6 -1 9 28 23 8 19 -43 -8z"/>
<path d="M428 833 c7 -3 16 -2 19 1 4 3 -2 6 -13 5 -11 0 -14 -3 -6 -6z"/>
<path d="M1595 354 c-27 -8 -159 -41 -293 -73 -134 -33 -246 -61 -249 -64 -9
-10 -16 -197 -7 -197 5 0 19 6 30 14 11 8 61 37 110 64 49 27 118 66 154 87
36 20 88 50 115 65 28 15 84 47 125 69 103 58 104 61 15 35z"/>
</g>
</svg>
